<svg width="143" height="19" viewBox="0 0 143 19" fill="none" xmlns="http://www.w3.org/2000/svg">
<path d="M10 18.3182C8.10606 18.3182 6.48485 17.9432 5.13636 17.1932C3.78788 16.4356 2.75379 15.3826 2.03409 14.0341C1.31439 12.678 0.954545 11.1061 0.954545 9.31818C0.954545 7.5303 1.31439 5.96212 2.03409 4.61364C2.75379 3.25758 3.78788 2.20454 5.13636 1.45454C6.48485 0.696969 8.10606 0.318182 10 0.318182C11.7121 0.318182 13.1932 0.628788 14.4432 1.25C15.7008 1.86364 16.6742 2.73485 17.3636 3.86364C18.053 4.98485 18.4015 6.30303 18.4091 7.81818H12.5909C12.5076 6.90151 12.2424 6.20454 11.7955 5.72727C11.3561 5.24242 10.7879 5 10.0909 5C9.54545 5 9.06818 5.15909 8.65909 5.47727C8.25 5.78788 7.93182 6.26136 7.70455 6.89773C7.47727 7.52652 7.36364 8.31818 7.36364 9.27273C7.36364 10.2273 7.47727 11.0227 7.70455 11.6591C7.93182 12.2879 8.25 12.7614 8.65909 13.0795C9.06818 13.3902 9.54545 13.5455 10.0909 13.5455C10.553 13.5455 10.9621 13.4394 11.3182 13.2273C11.6742 13.0076 11.9621 12.6894 12.1818 12.2727C12.4091 11.8485 12.5455 11.3333 12.5909 10.7273H18.4091C18.3864 12.2652 18.0341 13.6061 17.3523 14.75C16.6705 15.8864 15.7045 16.7652 14.4545 17.3864C13.2121 18.0076 11.7273 18.3182 10 18.3182ZM25.8608 18.2727C24.7472 18.2727 23.7623 18.0909 22.9062 17.7273C22.0578 17.3561 21.3911 16.7955 20.9062 16.0455C20.4214 15.2955 20.179 14.3409 20.179 13.1818C20.179 12.2273 20.3419 11.4129 20.6676 10.7386C20.9934 10.0568 21.4479 9.5 22.0312 9.06818C22.6146 8.63636 23.2926 8.30682 24.0653 8.07955C24.8456 7.85227 25.6866 7.70455 26.5881 7.63636C27.5653 7.56061 28.3494 7.4697 28.9403 7.36364C29.5388 7.25 29.9706 7.0947 30.2358 6.89773C30.5009 6.69318 30.6335 6.42424 30.6335 6.09091V6.04545C30.6335 5.59091 30.4593 5.24242 30.1108 5C29.7623 4.75758 29.3153 4.63636 28.7699 4.63636C28.1714 4.63636 27.6828 4.76894 27.304 5.03409C26.9328 5.29167 26.7093 5.68939 26.6335 6.22727H20.8608C20.9366 5.16667 21.2737 4.18939 21.8722 3.29545C22.4782 2.39394 23.3608 1.67424 24.5199 1.13636C25.679 0.590909 27.1259 0.318182 28.8608 0.318182C30.1108 0.318182 31.232 0.465909 32.2244 0.761364C33.2169 1.04924 34.0616 1.45455 34.7585 1.97727C35.4555 2.49242 35.9858 3.09848 36.3494 3.79545C36.7206 4.48485 36.9062 5.23485 36.9062 6.04545V18H31.0426V15.5455H30.9062C30.5578 16.197 30.1335 16.7235 29.6335 17.125C29.1411 17.5265 28.5767 17.8182 27.9403 18C27.3116 18.1818 26.6184 18.2727 25.8608 18.2727ZM27.9062 14.3182C28.3835 14.3182 28.8305 14.2197 29.2472 14.0227C29.6714 13.8258 30.0161 13.5417 30.2812 13.1705C30.5464 12.7992 30.679 12.3485 30.679 11.8182V10.3636C30.5123 10.4318 30.3343 10.4962 30.1449 10.5568C29.9631 10.6174 29.7661 10.6742 29.554 10.7273C29.3494 10.7803 29.1297 10.8295 28.8949 10.875C28.6676 10.9205 28.429 10.9621 28.179 11C27.6941 11.0758 27.2964 11.2008 26.9858 11.375C26.6828 11.5417 26.4555 11.75 26.304 12C26.16 12.2424 26.0881 12.5152 26.0881 12.8182C26.0881 13.303 26.2585 13.6742 26.5994 13.9318C26.9403 14.1894 27.3759 14.3182 27.9062 14.3182ZM39.9034 18V0.545454H45.9943V3.86364H46.1761C46.4943 2.63636 46.9981 1.73864 47.6875 1.17045C48.3845 0.602273 49.1989 0.318182 50.1307 0.318182C50.4034 0.318182 50.6723 0.340909 50.9375 0.386364C51.2102 0.424243 51.4716 0.481061 51.7216 0.556818V5.90909C51.411 5.80303 51.0284 5.72348 50.5739 5.67045C50.1193 5.61742 49.7292 5.59091 49.4034 5.59091C48.7898 5.59091 48.2367 5.73106 47.7443 6.01136C47.2595 6.28409 46.8769 6.67045 46.5966 7.17045C46.3163 7.66288 46.1761 8.24242 46.1761 8.90909V18H39.9034ZM60.0511 8.18182V18H53.7784V0.545454H59.733V3.86364H59.9148C60.2936 2.75758 60.9602 1.89015 61.9148 1.26136C62.8769 0.632576 63.9981 0.318182 65.2784 0.318182C66.5133 0.318182 67.5852 0.602273 68.4943 1.17045C69.411 1.73106 70.1193 2.50379 70.6193 3.48864C71.1269 4.47348 71.3769 5.59848 71.3693 6.86364V18H65.0966V8.18182C65.1042 7.31818 64.8845 6.64015 64.4375 6.14773C63.9981 5.6553 63.3845 5.40909 62.5966 5.40909C62.0814 5.40909 61.6307 5.52273 61.2443 5.75C60.8655 5.9697 60.5739 6.28788 60.3693 6.70455C60.1648 7.11364 60.0587 7.60606 60.0511 8.18182ZM79.3295 18.2727C78.2159 18.2727 77.2311 18.0909 76.375 17.7273C75.5265 17.3561 74.8598 16.7955 74.375 16.0455C73.8902 15.2955 73.6477 14.3409 73.6477 13.1818C73.6477 12.2273 73.8106 11.4129 74.1364 10.7386C74.4621 10.0568 74.9167 9.5 75.5 9.06818C76.0833 8.63636 76.7614 8.30682 77.5341 8.07955C78.3144 7.85227 79.1553 7.70455 80.0568 7.63636C81.0341 7.56061 81.8182 7.4697 82.4091 7.36364C83.0076 7.25 83.4394 7.0947 83.7045 6.89773C83.9697 6.69318 84.1023 6.42424 84.1023 6.09091V6.04545C84.1023 5.59091 83.928 5.24242 83.5795 5C83.2311 4.75758 82.7841 4.63636 82.2386 4.63636C81.6402 4.63636 81.1515 4.76894 80.7727 5.03409C80.4015 5.29167 80.178 5.68939 80.1023 6.22727H74.3295C74.4053 5.16667 74.7424 4.18939 75.3409 3.29545C75.947 2.39394 76.8295 1.67424 77.9886 1.13636C79.1477 0.590909 80.5947 0.318182 82.3295 0.318182C83.5795 0.318182 84.7008 0.465909 85.6932 0.761364C86.6856 1.04924 87.5303 1.45455 88.2273 1.97727C88.9242 2.49242 89.4545 3.09848 89.8182 3.79545C90.1894 4.48485 90.375 5.23485 90.375 6.04545V18H84.5114V15.5455H84.375C84.0265 16.197 83.6023 16.7235 83.1023 17.125C82.6098 17.5265 82.0455 17.8182 81.4091 18C80.7803 18.1818 80.0871 18.2727 79.3295 18.2727ZM81.375 14.3182C81.8523 14.3182 82.2992 14.2197 82.7159 14.0227C83.1402 13.8258 83.4848 13.5417 83.75 13.1705C84.0152 12.7992 84.1477 12.3485 84.1477 11.8182V10.3636C83.9811 10.4318 83.803 10.4962 83.6136 10.5568C83.4318 10.6174 83.2348 10.6742 83.0227 10.7273C82.8182 10.7803 82.5985 10.8295 82.3636 10.875C82.1364 10.9205 81.8977 10.9621 81.6477 11C81.1629 11.0758 80.7652 11.2008 80.4545 11.375C80.1515 11.5417 79.9242 11.75 79.7727 12C79.6288 12.2424 79.5568 12.5152 79.5568 12.8182C79.5568 13.303 79.7273 13.6742 80.0682 13.9318C80.4091 14.1894 80.8447 14.3182 81.375 14.3182ZM107.418 0.545454L101.111 18H99.5426L93.2358 0.545454H94.7244L100.27 16.2159H100.384L105.929 0.545454H107.418ZM117.614 18.3636C116.174 18.3636 114.894 17.9773 113.773 17.2045C112.652 16.4242 111.769 15.3523 111.125 13.9886C110.481 12.625 110.159 11.072 110.159 9.32955C110.159 7.57955 110.481 6.02651 111.125 4.67045C111.769 3.30682 112.652 2.23485 113.773 1.45454C114.894 0.674241 116.174 0.28409 117.614 0.28409C119.053 0.28409 120.333 0.674241 121.455 1.45454C122.576 2.23485 123.458 3.30682 124.102 4.67045C124.746 6.03409 125.068 7.58712 125.068 9.32955C125.068 11.072 124.746 12.625 124.102 13.9886C123.458 15.3523 122.576 16.4242 121.455 17.2045C120.333 17.9773 119.053 18.3636 117.614 18.3636ZM117.614 17.0795C118.833 17.0795 119.898 16.7348 120.807 16.0455C121.723 15.3561 122.432 14.4242 122.932 13.25C123.439 12.0758 123.693 10.7689 123.693 9.32955C123.693 7.89015 123.439 6.58712 122.932 5.42045C122.424 4.24621 121.716 3.31439 120.807 2.625C119.898 1.92803 118.833 1.57954 117.614 1.57954C116.394 1.57954 115.33 1.92803 114.42 2.625C113.511 3.31439 112.803 4.24621 112.295 5.42045C111.788 6.58712 111.534 7.89015 111.534 9.32955C111.534 10.7689 111.784 12.0758 112.284 13.25C112.792 14.4242 113.5 15.3561 114.409 16.0455C115.326 16.7348 116.394 17.0795 117.614 17.0795ZM141.026 11.8068V0.545454H142.412V18H141.026V15.1705H140.912C140.503 16.072 139.84 16.8068 138.923 17.375C138.014 17.9432 136.938 18.2273 135.696 18.2273C134.552 18.2273 133.541 17.9773 132.662 17.4773C131.783 16.9773 131.094 16.2689 130.594 15.3523C130.094 14.428 129.844 13.3295 129.844 12.0568V0.545454H131.23V12C131.23 13.4545 131.67 14.6326 132.548 15.5341C133.435 16.428 134.579 16.875 135.98 16.875C136.889 16.875 137.726 16.6705 138.491 16.2614C139.257 15.8523 139.87 15.2689 140.332 14.5114C140.795 13.7462 141.026 12.8447 141.026 11.8068Z" fill="#682B7D"/>
</svg>
