<svg width="107" height="15" viewBox="0 0 107 15" fill="none" xmlns="http://www.w3.org/2000/svg">
<path d="M7.5 14.2386C6.07955 14.2386 4.86364 13.9574 3.85227 13.3949C2.84091 12.8267 2.06534 12.0369 1.52557 11.0256C0.985795 10.0085 0.715909 8.82955 0.715909 7.48864C0.715909 6.14773 0.985795 4.97159 1.52557 3.96023C2.06534 2.94318 2.84091 2.15341 3.85227 1.59091C4.86364 1.02273 6.07955 0.738636 7.5 0.738636C8.78409 0.738636 9.89489 0.971591 10.8324 1.4375C11.7756 1.89773 12.5057 2.55114 13.0227 3.39773C13.5398 4.23864 13.8011 5.22727 13.8068 6.36364H9.44318C9.38068 5.67614 9.18182 5.15341 8.84659 4.79545C8.51705 4.43182 8.09091 4.25 7.56818 4.25C7.15909 4.25 6.80114 4.36932 6.49432 4.60795C6.1875 4.84091 5.94886 5.19602 5.77841 5.6733C5.60795 6.14489 5.52273 6.73864 5.52273 7.45455C5.52273 8.17045 5.60795 8.76705 5.77841 9.24432C5.94886 9.71591 6.1875 10.071 6.49432 10.3097C6.80114 10.5426 7.15909 10.6591 7.56818 10.6591C7.91477 10.6591 8.22159 10.5795 8.48864 10.4205C8.75568 10.2557 8.97159 10.017 9.13636 9.70455C9.30682 9.38636 9.40909 9 9.44318 8.54545H13.8068C13.7898 9.69886 13.5256 10.7045 13.0142 11.5625C12.5028 12.4148 11.7784 13.0739 10.8409 13.5398C9.90909 14.0057 8.79545 14.2386 7.5 14.2386ZM19.3956 14.2045C18.5604 14.2045 17.8217 14.0682 17.1797 13.7955C16.5433 13.517 16.0433 13.0966 15.6797 12.5341C15.3161 11.9716 15.1342 11.2557 15.1342 10.3864C15.1342 9.67045 15.2564 9.05966 15.5007 8.55398C15.745 8.04261 16.0859 7.625 16.5234 7.30114C16.9609 6.97727 17.4695 6.73011 18.049 6.55966C18.6342 6.3892 19.2649 6.27841 19.9411 6.22727C20.674 6.17045 21.2621 6.10227 21.7053 6.02273C22.1541 5.9375 22.478 5.82102 22.6768 5.6733C22.8757 5.51989 22.9751 5.31818 22.9751 5.06818V5.03409C22.9751 4.69318 22.8445 4.43182 22.5831 4.25C22.3217 4.06818 21.9865 3.97727 21.5774 3.97727C21.1286 3.97727 20.7621 4.0767 20.478 4.27557C20.1996 4.46875 20.032 4.76705 19.9751 5.17045H15.6456C15.7024 4.375 15.9553 3.64205 16.4041 2.97159C16.8587 2.29545 17.5206 1.75568 18.3899 1.35227C19.2592 0.943182 20.3445 0.738636 21.6456 0.738636C22.5831 0.738636 23.424 0.849432 24.1683 1.07102C24.9126 1.28693 25.5462 1.59091 26.0689 1.98295C26.5916 2.36932 26.9893 2.82386 27.2621 3.34659C27.5405 3.86364 27.6797 4.42614 27.6797 5.03409V14H23.282V12.1591H23.1797C22.9183 12.6477 22.6001 13.0426 22.2251 13.3438C21.8558 13.6449 21.4325 13.8636 20.9553 14C20.4837 14.1364 19.9638 14.2045 19.3956 14.2045ZM20.9297 11.2386C21.2876 11.2386 21.6229 11.1648 21.9354 11.017C22.2536 10.8693 22.5121 10.6562 22.7109 10.3778C22.9098 10.0994 23.0092 9.76136 23.0092 9.36364V8.27273C22.8842 8.32386 22.7507 8.37216 22.6087 8.41761C22.4723 8.46307 22.3246 8.50568 22.1655 8.54545C22.0121 8.58523 21.8473 8.62216 21.6712 8.65625C21.5007 8.69034 21.3217 8.72159 21.1342 8.75C20.7706 8.80682 20.4723 8.90057 20.2393 9.03125C20.0121 9.15625 19.8416 9.3125 19.728 9.5C19.62 9.68182 19.5661 9.88636 19.5661 10.1136C19.5661 10.4773 19.6939 10.7557 19.9496 10.9489C20.2053 11.142 20.532 11.2386 20.9297 11.2386ZM29.9276 14V0.909091H34.4957V3.39773H34.6321C34.8707 2.47727 35.2486 1.80398 35.7656 1.37784C36.2884 0.951705 36.8991 0.738636 37.598 0.738636C37.8026 0.738636 38.0043 0.755682 38.2031 0.789773C38.4077 0.818182 38.6037 0.860795 38.7912 0.917614V4.93182C38.5582 4.85227 38.2713 4.79261 37.9304 4.75284C37.5895 4.71307 37.2969 4.69318 37.0526 4.69318C36.5923 4.69318 36.1776 4.7983 35.8082 5.00852C35.4446 5.21307 35.1577 5.50284 34.9474 5.87784C34.7372 6.24716 34.6321 6.68182 34.6321 7.18182V14H29.9276ZM45.0384 6.63636V14H40.3338V0.909091H44.7997V3.39773H44.9361C45.2202 2.56818 45.7202 1.91761 46.4361 1.44602C47.1577 0.974432 47.9986 0.738636 48.9588 0.738636C49.8849 0.738636 50.6889 0.951705 51.3707 1.37784C52.0582 1.7983 52.5895 2.37784 52.9645 3.11648C53.3452 3.85511 53.5327 4.69886 53.527 5.64773V14H48.8224V6.63636C48.8281 5.98864 48.6634 5.48011 48.3281 5.1108C47.9986 4.74148 47.5384 4.55682 46.9474 4.55682C46.5611 4.55682 46.223 4.64205 45.9332 4.8125C45.6491 4.97727 45.4304 5.21591 45.277 5.52841C45.1236 5.83523 45.044 6.20455 45.0384 6.63636ZM59.4972 14.2045C58.6619 14.2045 57.9233 14.0682 57.2812 13.7955C56.6449 13.517 56.1449 13.0966 55.7812 12.5341C55.4176 11.9716 55.2358 11.2557 55.2358 10.3864C55.2358 9.67045 55.358 9.05966 55.6023 8.55398C55.8466 8.04261 56.1875 7.625 56.625 7.30114C57.0625 6.97727 57.571 6.73011 58.1506 6.55966C58.7358 6.3892 59.3665 6.27841 60.0426 6.22727C60.7756 6.17045 61.3636 6.10227 61.8068 6.02273C62.2557 5.9375 62.5795 5.82102 62.7784 5.6733C62.9773 5.51989 63.0767 5.31818 63.0767 5.06818V5.03409C63.0767 4.69318 62.946 4.43182 62.6847 4.25C62.4233 4.06818 62.0881 3.97727 61.679 3.97727C61.2301 3.97727 60.8636 4.0767 60.5795 4.27557C60.3011 4.46875 60.1335 4.76705 60.0767 5.17045H55.7472C55.804 4.375 56.0568 3.64205 56.5057 2.97159C56.9602 2.29545 57.6222 1.75568 58.4915 1.35227C59.3608 0.943182 60.446 0.738636 61.7472 0.738636C62.6847 0.738636 63.5256 0.849432 64.2699 1.07102C65.0142 1.28693 65.6477 1.59091 66.1705 1.98295C66.6932 2.36932 67.0909 2.82386 67.3636 3.34659C67.642 3.86364 67.7812 4.42614 67.7812 5.03409V14H63.3835V12.1591H63.2812C63.0199 12.6477 62.7017 13.0426 62.3267 13.3438C61.9574 13.6449 61.5341 13.8636 61.0568 14C60.5852 14.1364 60.0653 14.2045 59.4972 14.2045ZM61.0312 11.2386C61.3892 11.2386 61.7244 11.1648 62.0369 11.017C62.3551 10.8693 62.6136 10.6562 62.8125 10.3778C63.0114 10.0994 63.1108 9.76136 63.1108 9.36364V8.27273C62.9858 8.32386 62.8523 8.37216 62.7102 8.41761C62.5739 8.46307 62.4261 8.50568 62.267 8.54545C62.1136 8.58523 61.9489 8.62216 61.7727 8.65625C61.6023 8.69034 61.4233 8.72159 61.2358 8.75C60.8722 8.80682 60.5739 8.90057 60.3409 9.03125C60.1136 9.15625 59.9432 9.3125 59.8295 9.5C59.7216 9.68182 59.6676 9.88636 59.6676 10.1136C59.6676 10.4773 59.7955 10.7557 60.0511 10.9489C60.3068 11.142 60.6335 11.2386 61.0312 11.2386ZM80.5632 0.909091L75.8331 14H74.657L69.9268 0.909091H71.0433L75.2024 12.6619H75.2876L79.4467 0.909091H80.5632ZM88.2102 14.2727C87.1307 14.2727 86.1705 13.983 85.3295 13.4034C84.4886 12.8182 83.8267 12.0142 83.3438 10.9915C82.8608 9.96875 82.6193 8.80398 82.6193 7.49716C82.6193 6.18466 82.8608 5.01989 83.3438 4.00284C83.8267 2.98011 84.4886 2.17614 85.3295 1.59091C86.1705 1.00568 87.1307 0.713068 88.2102 0.713068C89.2898 0.713068 90.25 1.00568 91.0909 1.59091C91.9318 2.17614 92.5938 2.98011 93.0767 4.00284C93.5597 5.02557 93.8011 6.19034 93.8011 7.49716C93.8011 8.80398 93.5597 9.96875 93.0767 10.9915C92.5938 12.0142 91.9318 12.8182 91.0909 13.4034C90.25 13.983 89.2898 14.2727 88.2102 14.2727ZM88.2102 13.3097C89.125 13.3097 89.9233 13.0511 90.6051 12.5341C91.2926 12.017 91.8239 11.3182 92.1989 10.4375C92.5795 9.55682 92.7699 8.5767 92.7699 7.49716C92.7699 6.41761 92.5795 5.44034 92.1989 4.56534C91.8182 3.68466 91.2869 2.9858 90.6051 2.46875C89.9233 1.94602 89.125 1.68466 88.2102 1.68466C87.2955 1.68466 86.4972 1.94602 85.8153 2.46875C85.1335 2.9858 84.6023 3.68466 84.2216 4.56534C83.8409 5.44034 83.6506 6.41761 83.6506 7.49716C83.6506 8.5767 83.8381 9.55682 84.2131 10.4375C84.5938 11.3182 85.125 12.017 85.8068 12.5341C86.4943 13.0511 87.2955 13.3097 88.2102 13.3097ZM105.769 9.35511V0.909091H106.809V14H105.769V11.8778H105.684C105.377 12.554 104.88 13.1051 104.192 13.5312C103.511 13.9574 102.704 14.1705 101.772 14.1705C100.914 14.1705 100.156 13.983 99.4964 13.608C98.8374 13.233 98.3203 12.7017 97.9453 12.0142C97.5703 11.321 97.3828 10.4972 97.3828 9.54261V0.909091H98.4226V9.5C98.4226 10.5909 98.7521 11.4744 99.4112 12.1506C100.076 12.821 100.934 13.1562 101.985 13.1562C102.667 13.1562 103.295 13.0028 103.869 12.696C104.442 12.3892 104.903 11.9517 105.249 11.3835C105.596 10.8097 105.769 10.1335 105.769 9.35511Z" fill="#EBFF01"/>
</svg>
